<mxfile host="app.diagrams.net" modified="2024-03-10T04:26:18.307Z" agent="Mozilla/5.0 (Windows NT 10.0; Win64; x64) AppleWebKit/537.36 (KHTML, like Gecko) Chrome/122.0.0.0 Safari/537.36" etag="4sQEBWZYdK-qK9H-klB8" version="23.1.5" type="github">
  <diagram name="第 1 页" id="uYEWZqn8R5cjCuJ5f_Ug">
    <mxGraphModel dx="2242" dy="737" grid="1" gridSize="10" guides="1" tooltips="1" connect="1" arrows="1" fold="1" page="1" pageScale="1" pageWidth="827" pageHeight="1169" math="0" shadow="0">
      <root>
        <mxCell id="0" />
        <mxCell id="1" parent="0" />
        <mxCell id="nQHAfK3ov--qjn9e3XLA-1" value="&lt;font style=&quot;font-size: 14px;&quot;&gt;&lt;i&gt;JDH (job dispatch)&lt;/i&gt;&lt;br style=&quot;&quot;&gt;JDH_AIO_MOD3REM3()&lt;br style=&quot;&quot;&gt;UL_JDH_AIO_MCC_v2()&lt;/font&gt;" style="rounded=1;whiteSpace=wrap;html=1;sketch=1;curveFitting=1;jiggle=2;fontSize=16;fontStyle=1;fontColor=#007FFF;" vertex="1" parent="1">
          <mxGeometry x="-232" y="280" width="210" height="80" as="geometry" />
        </mxCell>
        <mxCell id="nQHAfK3ov--qjn9e3XLA-2" value="" style="shape=flexArrow;endArrow=classic;html=1;rounded=0;" edge="1" parent="1">
          <mxGeometry width="50" height="50" relative="1" as="geometry">
            <mxPoint x="-22" y="319.5" as="sourcePoint" />
            <mxPoint x="58" y="319.5" as="targetPoint" />
          </mxGeometry>
        </mxCell>
        <mxCell id="nQHAfK3ov--qjn9e3XLA-3" value="low-phy/HS-fr2-AIO/L1_TASKS/&lt;br&gt;vspa0_fr2/Sources/vspa3_16au_main.c" style="text;whiteSpace=wrap;html=1;" vertex="1" parent="1">
          <mxGeometry x="738" y="157.5" width="230" height="40" as="geometry" />
        </mxCell>
        <mxCell id="nQHAfK3ov--qjn9e3XLA-4" value="&lt;font style=&quot;font-size: 14px;&quot;&gt;MSG_TYPE_PHY_DL_CONFG_REQ&lt;br&gt;MSG_TYPE_PHY_UL_CONFG_REQ&lt;/font&gt;" style="rounded=1;whiteSpace=wrap;html=1;sketch=1;curveFitting=1;jiggle=2;fontSize=16;fontStyle=1;fontColor=#007FFF;" vertex="1" parent="1">
          <mxGeometry x="-258" y="160" width="270" height="65" as="geometry" />
        </mxCell>
        <mxCell id="nQHAfK3ov--qjn9e3XLA-5" value="" style="shape=flexArrow;endArrow=classic;html=1;rounded=0;" edge="1" parent="1">
          <mxGeometry width="50" height="50" relative="1" as="geometry">
            <mxPoint x="-127" y="230" as="sourcePoint" />
            <mxPoint x="-127.5" y="280" as="targetPoint" />
          </mxGeometry>
        </mxCell>
        <mxCell id="nQHAfK3ov--qjn9e3XLA-6" value="&lt;font style=&quot;font-size: 14px;&quot;&gt;VSPA_ENC_DEC_TASK()&lt;/font&gt;" style="rounded=1;whiteSpace=wrap;html=1;sketch=1;curveFitting=1;jiggle=2;fontSize=16;fontStyle=1;fontColor=#007FFF;" vertex="1" parent="1">
          <mxGeometry x="60" y="300" width="180" height="47.5" as="geometry" />
        </mxCell>
        <mxCell id="nQHAfK3ov--qjn9e3XLA-8" value="&lt;font style=&quot;font-size: 14px;&quot;&gt;VSPA_ENC_DEC_init()&lt;/font&gt;" style="rounded=1;whiteSpace=wrap;html=1;sketch=1;curveFitting=1;jiggle=2;fontSize=16;fontStyle=1;fontColor=#007FFF;" vertex="1" parent="1">
          <mxGeometry x="-50" y="80" width="180" height="47.5" as="geometry" />
        </mxCell>
        <mxCell id="nQHAfK3ov--qjn9e3XLA-9" value="&lt;font style=&quot;&quot;&gt;&lt;font style=&quot;font-size: 18px;&quot;&gt;yami.ko&lt;/font&gt;&lt;br&gt;&lt;span style=&quot;font-size: 14px;&quot;&gt;IOCTL_GUL_IPC_IPREG_REQ&lt;br&gt;&lt;div style=&quot;text-align: left;&quot;&gt;&lt;span style=&quot;background-color: initial;&quot;&gt;IOCTL_GUL_IPC_VSPA_GO&lt;/span&gt;&lt;/div&gt;&lt;/span&gt;&lt;/font&gt;" style="rounded=1;whiteSpace=wrap;html=1;sketch=1;curveFitting=1;jiggle=2;fontSize=16;fontStyle=1;fontColor=#003469;" vertex="1" parent="1">
          <mxGeometry x="302" y="90" width="218" height="150" as="geometry" />
        </mxCell>
        <mxCell id="nQHAfK3ov--qjn9e3XLA-10" value="" style="endArrow=none;dashed=1;html=1;rounded=0;strokeColor=#007FFF;strokeWidth=2;" edge="1" parent="1">
          <mxGeometry width="50" height="50" relative="1" as="geometry">
            <mxPoint x="266" y="480" as="sourcePoint" />
            <mxPoint x="262" y="20" as="targetPoint" />
          </mxGeometry>
        </mxCell>
        <mxCell id="nQHAfK3ov--qjn9e3XLA-11" value="&lt;font style=&quot;font-size: 25px; font-weight: normal;&quot;&gt;LX / Kernel Mode&lt;/font&gt;" style="text;whiteSpace=wrap;html=1;fontStyle=1;fontColor=#FFFFFF;fontSize=29;rounded=1;strokeColor=default;fillColor=#003469;align=center;strokeWidth=2;" vertex="1" parent="1">
          <mxGeometry x="302" y="11" width="234" height="50" as="geometry" />
        </mxCell>
        <mxCell id="nQHAfK3ov--qjn9e3XLA-13" value="&lt;font style=&quot;font-size: 25px; font-weight: normal;&quot;&gt;LX / User Mode&lt;/font&gt;" style="text;whiteSpace=wrap;html=1;fontStyle=1;fontColor=#FFFFFF;fontSize=29;rounded=1;strokeColor=default;fillColor=#007FFF;align=center;strokeWidth=2;" vertex="1" parent="1">
          <mxGeometry x="-128" y="9" width="234" height="50" as="geometry" />
        </mxCell>
        <mxCell id="nQHAfK3ov--qjn9e3XLA-15" value="" style="endArrow=none;dashed=1;html=1;rounded=0;strokeColor=#007FFF;strokeWidth=2;" edge="1" parent="1">
          <mxGeometry width="50" height="50" relative="1" as="geometry">
            <mxPoint x="566" y="480" as="sourcePoint" />
            <mxPoint x="562" y="20" as="targetPoint" />
          </mxGeometry>
        </mxCell>
        <mxCell id="nQHAfK3ov--qjn9e3XLA-16" value="&lt;font style=&quot;font-size: 25px; font-weight: normal;&quot;&gt;LA&lt;/font&gt;" style="text;whiteSpace=wrap;html=1;fontStyle=1;fontColor=#FFFFFF;fontSize=29;rounded=1;strokeColor=default;fillColor=#006600;align=center;strokeWidth=2;" vertex="1" parent="1">
          <mxGeometry x="785" y="430" width="80" height="50" as="geometry" />
        </mxCell>
        <mxCell id="nQHAfK3ov--qjn9e3XLA-17" value="" style="endArrow=none;dashed=1;html=1;rounded=0;strokeColor=#007FFF;strokeWidth=2;" edge="1" parent="1">
          <mxGeometry width="50" height="50" relative="1" as="geometry">
            <mxPoint x="1090" y="265" as="sourcePoint" />
            <mxPoint x="590" y="265" as="targetPoint" />
          </mxGeometry>
        </mxCell>
        <mxCell id="nQHAfK3ov--qjn9e3XLA-18" value="&lt;font style=&quot;font-size: 25px; font-weight: normal;&quot;&gt;VSPA&lt;/font&gt;" style="text;whiteSpace=wrap;html=1;fontStyle=1;fontColor=#FFFFFF;fontSize=29;rounded=1;strokeColor=#000000;fillColor=#FF0000;align=center;strokeWidth=2;" vertex="1" parent="1">
          <mxGeometry x="760" y="11" width="130" height="50" as="geometry" />
        </mxCell>
        <mxCell id="nQHAfK3ov--qjn9e3XLA-19" value="&lt;span style=&quot;font-size: 18px;&quot;&gt;vspa0 / Encode&lt;br&gt;&lt;/span&gt;" style="rounded=1;whiteSpace=wrap;html=1;sketch=1;curveFitting=1;jiggle=2;fontSize=16;fontStyle=1;fontColor=#FF0000;strokeColor=#FF0000;" vertex="1" parent="1">
          <mxGeometry x="745" y="90" width="160" height="60" as="geometry" />
        </mxCell>
        <mxCell id="nQHAfK3ov--qjn9e3XLA-22" value="&lt;span style=&quot;font-size: 18px;&quot;&gt;feca encode&lt;br&gt;&lt;/span&gt;" style="rounded=1;whiteSpace=wrap;html=1;sketch=1;curveFitting=1;jiggle=2;fontSize=16;fontStyle=1;fontColor=#006600;strokeColor=#006600;" vertex="1" parent="1">
          <mxGeometry x="745" y="320" width="160" height="40" as="geometry" />
        </mxCell>
        <mxCell id="nQHAfK3ov--qjn9e3XLA-23" value="VSPA DMA ?&amp;nbsp;" style="endArrow=classic;html=1;rounded=0;fontSize=12;" edge="1" parent="1">
          <mxGeometry width="50" height="50" relative="1" as="geometry">
            <mxPoint x="830" y="201" as="sourcePoint" />
            <mxPoint x="830" y="311" as="targetPoint" />
          </mxGeometry>
        </mxCell>
        <mxCell id="nQHAfK3ov--qjn9e3XLA-24" value="&lt;span style=&quot;font-size: 18px;&quot;&gt;vspa0 / MOD3&lt;br&gt;&lt;/span&gt;" style="rounded=1;whiteSpace=wrap;html=1;sketch=1;curveFitting=1;jiggle=2;fontSize=16;fontStyle=1;fontColor=#FF0000;strokeColor=#FF0000;" vertex="1" parent="1">
          <mxGeometry x="950" y="90" width="160" height="40" as="geometry" />
        </mxCell>
        <mxCell id="nQHAfK3ov--qjn9e3XLA-25" value="low-phy/HS-fr2-AIO/L1_TASKS/&lt;br&gt;vspa1_encoder_decoder/Sources/main.c" style="text;whiteSpace=wrap;html=1;" vertex="1" parent="1">
          <mxGeometry x="952" y="136.5" width="230" height="40" as="geometry" />
        </mxCell>
        <mxCell id="nQHAfK3ov--qjn9e3XLA-26" value="(1) ioctl ipreg_req" style="endArrow=classic;html=1;rounded=0;entryX=0;entryY=0.25;entryDx=0;entryDy=0;exitX=1;exitY=0.5;exitDx=0;exitDy=0;fontSize=12;" edge="1" parent="1" source="nQHAfK3ov--qjn9e3XLA-8" target="nQHAfK3ov--qjn9e3XLA-9">
          <mxGeometry x="0.0106" width="50" height="50" relative="1" as="geometry">
            <mxPoint x="219" y="129.5" as="sourcePoint" />
            <mxPoint x="359" y="129.5" as="targetPoint" />
            <mxPoint as="offset" />
          </mxGeometry>
        </mxCell>
        <mxCell id="nQHAfK3ov--qjn9e3XLA-27" value="(2) vspa_host_out_0_lsb msg / axi addr" style="endArrow=classic;html=1;rounded=0;entryX=0;entryY=0.25;entryDx=0;entryDy=0;exitX=1.03;exitY=0.188;exitDx=0;exitDy=0;exitPerimeter=0;align=center;fontSize=12;" edge="1" parent="1" source="nQHAfK3ov--qjn9e3XLA-9" target="nQHAfK3ov--qjn9e3XLA-19">
          <mxGeometry x="-0.3202" y="5" width="50" height="50" relative="1" as="geometry">
            <mxPoint x="607" y="167.25" as="sourcePoint" />
            <mxPoint x="690" y="187.75" as="targetPoint" />
            <mxPoint as="offset" />
          </mxGeometry>
        </mxCell>
        <mxCell id="nQHAfK3ov--qjn9e3XLA-28" value="(4) vspa_go msg" style="endArrow=classic;html=1;rounded=0;exitX=1.009;exitY=0.387;exitDx=0;exitDy=0;exitPerimeter=0;fontSize=12;entryX=0;entryY=0.5;entryDx=0;entryDy=0;" edge="1" parent="1" source="nQHAfK3ov--qjn9e3XLA-9" target="nQHAfK3ov--qjn9e3XLA-19">
          <mxGeometry x="-0.3216" y="5" width="50" height="50" relative="1" as="geometry">
            <mxPoint x="532" y="170.5" as="sourcePoint" />
            <mxPoint x="731" y="150" as="targetPoint" />
            <mxPoint as="offset" />
          </mxGeometry>
        </mxCell>
        <mxCell id="nQHAfK3ov--qjn9e3XLA-30" value="(3) ioctl vspa_go" style="endArrow=classic;html=1;rounded=0;entryX=0;entryY=0.5;entryDx=0;entryDy=0;exitX=1;exitY=0.75;exitDx=0;exitDy=0;fontSize=12;" edge="1" parent="1" source="nQHAfK3ov--qjn9e3XLA-8" target="nQHAfK3ov--qjn9e3XLA-9">
          <mxGeometry x="0.0039" width="50" height="50" relative="1" as="geometry">
            <mxPoint x="200" y="190" as="sourcePoint" />
            <mxPoint x="312" y="208" as="targetPoint" />
            <mxPoint as="offset" />
          </mxGeometry>
        </mxCell>
        <mxCell id="nQHAfK3ov--qjn9e3XLA-32" value="&lt;span style=&quot;font-size: 14px;&quot;&gt;slotInd_handle()&lt;/span&gt;" style="rounded=1;whiteSpace=wrap;html=1;sketch=1;curveFitting=1;jiggle=2;fontSize=16;fontStyle=1;fontColor=#007FFF;" vertex="1" parent="1">
          <mxGeometry x="-290" y="66.5" width="140" height="45" as="geometry" />
        </mxCell>
        <mxCell id="nQHAfK3ov--qjn9e3XLA-33" value="" style="endArrow=classic;html=1;rounded=0;exitX=0.5;exitY=1;exitDx=0;exitDy=0;entryX=0.5;entryY=0;entryDx=0;entryDy=0;" edge="1" parent="1" source="nQHAfK3ov--qjn9e3XLA-32" target="nQHAfK3ov--qjn9e3XLA-4">
          <mxGeometry width="50" height="50" relative="1" as="geometry">
            <mxPoint x="70" y="220" as="sourcePoint" />
            <mxPoint x="120" y="170" as="targetPoint" />
          </mxGeometry>
        </mxCell>
        <mxCell id="nQHAfK3ov--qjn9e3XLA-34" value="(5) ioctl ipreg_req" style="endArrow=classic;html=1;rounded=0;exitX=0.578;exitY=-0.021;exitDx=0;exitDy=0;fontSize=12;exitPerimeter=0;entryX=0;entryY=0.75;entryDx=0;entryDy=0;" edge="1" parent="1" source="nQHAfK3ov--qjn9e3XLA-6" target="nQHAfK3ov--qjn9e3XLA-9">
          <mxGeometry x="0.0106" width="50" height="50" relative="1" as="geometry">
            <mxPoint x="140" y="221" as="sourcePoint" />
            <mxPoint x="290" y="200" as="targetPoint" />
            <mxPoint as="offset" />
          </mxGeometry>
        </mxCell>
        <mxCell id="nQHAfK3ov--qjn9e3XLA-35" value="(6) vspa_host_out_1_msb msg / &lt;br&gt;to encoded frame, slot" style="endArrow=classic;html=1;rounded=0;exitX=1;exitY=0.75;exitDx=0;exitDy=0;align=center;fontSize=12;entryX=0;entryY=0.75;entryDx=0;entryDy=0;" edge="1" parent="1" source="nQHAfK3ov--qjn9e3XLA-9" target="nQHAfK3ov--qjn9e3XLA-19">
          <mxGeometry x="-0.3202" y="5" width="50" height="50" relative="1" as="geometry">
            <mxPoint x="527" y="203.5" as="sourcePoint" />
            <mxPoint x="750" y="150" as="targetPoint" />
            <mxPoint as="offset" />
          </mxGeometry>
        </mxCell>
      </root>
    </mxGraphModel>
  </diagram>
</mxfile>
